<svg xmlns="http://www.w3.org/2000/svg" fill="none" viewBox="38.61 31.66 222.78 56.69"><path fill="#2D3277" d="M120.399 58.126c-.12-14.67-18.29-26.47-40.61-26.47h-.53a57.6 57.6 0 0 0-21.11 4c-11.3 4.54-18.97 12.54-19.54 21.72v4.18c.44 7.3 4.4 13.94 11.25 18.79 7.45 5.26 17.55 8 29.23 8h.63c12-.1 22.3-3.06 29.77-8.54 7.07-5.15 10.99-12.33 10.93-20.15z"/><path fill="#fff" d="M75.48 69.537a3.8 3.8 0 0 1 1.15-.26 2.952 2.952 0 0 1 2.88 4.114 2.95 2.95 0 0 1-2.88 1.776 2.92 2.92 0 0 1-2.94-2.78c0-.67-.39-.78-.6-.78a.86.86 0 0 0-.55.28 2 2 0 0 1-1.4.65c-.324 0-.644-.068-.94-.2a2.14 2.14 0 0 1-1.58-2.35.64.64 0 0 0-.14-.59.7.7 0 0 0-.33-.17.66.66 0 0 0-.53.17 2.9 2.9 0 0 1-1.46.66 2.1 2.1 0 0 1-.77-.14 3.05 3.05 0 0 1-2.08-3.48.52.52 0 0 0-.19-.56c-.26-.17-.51.08-.67.24a1.67 1.67 0 0 1-1.39.45 2.47 2.47 0 0 1-2.29-2.34 2.2 2.2 0 0 1 .65-1.6 2.22 2.22 0 0 1 1.57-.66 2.06 2.06 0 0 1 2.3 1.69v.13c0 .05.06.45.29.53s.42-.17.53-.33a.5.5 0 0 1 .08-.12l.07-.09a2.66 2.66 0 0 1 2.56-1.12c.339-.002.676.049 1 .15a2.3 2.3 0 0 1 1.53 2.32.56.56 0 0 0 .54.57.64.64 0 0 0 .47-.23 2.48 2.48 0 0 1 1.72-.93c.441.003.877.098 1.28.28 2.2.84 1.2 3.62 1.2 3.64-.13.32-.34.87.11 1.16h.27c.165-.014.328-.054.48-.12zm42.699-14.58a93.4 93.4 0 0 0-16.74 5.61c-3.87-3.32-12.82-11-15.24-12.76a11.1 11.1 0 0 0-3.25-1.85 5 5 0 0 0-1.63-.23 6.4 6.4 0 0 0-2 .36 16.3 16.3 0 0 0-4.69 3l-.09.08a13 13 0 0 1-3.86 2.49 6.8 6.8 0 0 1-1.41.16 3.66 3.66 0 0 1-2.49-.73.7.7 0 0 1 .11-.17l3.37-3.69c2.61-2.66 5.07-5.16 10.77-5.34h.28c2.588.097 5.133.698 7.49 1.77a24 24 0 0 0 10.52 2.43 27.2 27.2 0 0 0 11.24-2.79c4 3.36 6.67 7.36 7.62 11.66"/><path fill="#FFD100" d="M79.278 33.485h.51a57.8 57.8 0 0 1 15.94 2.17l.34.1.7.21a42.2 42.2 0 0 1 11.95 5.89 24.4 24.4 0 0 1-9.41 2.13h-.15a21.9 21.9 0 0 1-9.48-2.24 22.2 22.2 0 0 0-8.32-1.91h-.44a14.6 14.6 0 0 0-9.51 3.44c-1.6.11-3.183.415-4.71.91a12 12 0 0 1-3.24.65h-1.25c-3.94-.67-7.81-1.7-11.56-3.08 7.35-5.17 17.75-8.18 28.63-8.27"/><path fill="#fff" d="M48.77 43.176c5.18 2.07 11.18 3.54 13 3.64h.41c.42 0 .85.05 1.28.06a14.4 14.4 0 0 0 3.81-.74c.5-.15 1-.29 1.51-.41l-.07.07-3.42 3.76a2 2 0 0 0-.51 2.19 2.6 2.6 0 0 0 1 1.12 7.46 7.46 0 0 0 3.82.94 6.8 6.8 0 0 0 1.55-.15c1.49-.34 3-1.57 4.65-2.9a15.4 15.4 0 0 1 4.39-2.69q.584-.155 1.19-.17h.3a6.7 6.7 0 0 1 3.3 1.55c2.71 2 14.29 12 15.619 13.1a2.16 2.16 0 0 1 .69 1.64 1.8 1.8 0 0 1-.88 1.47c-.446.303-.97.473-1.51.49a2.5 2.5 0 0 1-1.34-.4l-.32-.29c-1.07-1-4.32-3.87-5.66-5a1.4 1.4 0 0 0-.91-.44.64.64 0 0 0-.52.25c-.3.37-.14.9.39 1.34l5.07 5c.336.316.557.735.63 1.19a2 2 0 0 1-1.07 1.87 2.9 2.9 0 0 1-1.64.56 2.44 2.44 0 0 1-1.24-.35l-.73-.72c-1.31-1.27-2.67-2.58-3.67-3.4a1.53 1.53 0 0 0-.9-.44.68.68 0 0 0-.5.22c-.14.17-.32.52.08 1 .13.16.27.3.27.3l3.7 4.08a1.13 1.13 0 0 1 .02 1.49l-.11.16-.32.3a2.65 2.65 0 0 1-1.63.53q-.225.016-.45 0c-.42-.07-.54-.17-.58-.22l-.12-.12a42 42 0 0 0-3.32-3.11 1.44 1.44 0 0 0-.86-.42.66.66 0 0 0-.51.23c-.31.35-.17.86.35 1.34l2.79 3.11c-.07.1-.38.44-1.45.58q-.204.015-.41 0a6.7 6.7 0 0 1-2.72-.75c.23-.59.345-1.218.34-1.85a4.87 4.87 0 0 0-1.47-3.47 4.94 4.94 0 0 0-3.4-1.42 4.28 4.28 0 0 0-2.56-4.34 5.4 5.4 0 0 0-2-.43c-.444.008-.885.08-1.31.21a4.22 4.22 0 0 0-2.34-1.85 4.94 4.94 0 0 0-4.32.48 4.17 4.17 0 0 0-3.09-1.37 4.26 4.26 0 0 0-2.8 1.1c-1.19-.83-5.17-3.16-15.16-5.34-.45-.1-1.43-.37-2.25-.6.89-4.36 3.63-8.5 7.91-11.98"/><path fill="#FFD100" d="M118.559 59.736q0 .49-.12 1c-.88 5.67-4.73 11-11.08 15.1-7.4 4.82-17.21 7.5-27.66 7.59h-.52c-21.33 0-38.68-11-38.79-24.65 0-.43 0-.9.06-1.43l2.17.49c9.84 2.1 13.52 4.32 14.44 5a4.22 4.22 0 0 0 3.97 5.62q.285.015.57 0a4.84 4.84 0 0 0 3.11 3.37 4.1 4.1 0 0 0 1.47.28q.399-.003.79-.08a4.48 4.48 0 0 0 2.53 2.22 4.7 4.7 0 0 0 1.65.32c.362.002.723-.052 1.07-.16a4.91 4.91 0 0 0 4.43 2.8 4.9 4.9 0 0 0 3.37-1.39 9 9 0 0 0 3.92 1.09q.315.015.63 0a3.83 3.83 0 0 0 2.89-1.55 1 1 0 0 0 .08-.12q.566.136 1.15.14a4.53 4.53 0 0 0 2.69-1 4 4 0 0 0 1.56-2.15h.65a5 5 0 0 0 2.75-.9 4.05 4.05 0 0 0 2-3.3q.305.03.61 0a4.74 4.74 0 0 0 2.61-.72 3.84 3.84 0 0 0 1.8-3 4.1 4.1 0 0 0-.46-2.15 103.5 103.5 0 0 1 15.64-5c0 .43.08.87.08 1.31s-.06.85-.06 1.27"/><path fill="#2D3277" d="M259.139 41.466q-2.2-2.81-6.71-2.81c-3 0-5.23.92-6.7 2.77a10.16 10.16 0 0 0-2.17 6.57 10.13 10.13 0 0 0 2.21 6.57c1.47 1.81 3.71 2.72 6.7 2.72s5.24-.91 6.71-2.72a10.13 10.13 0 0 0 2.21-6.57 10.17 10.17 0 0 0-2.25-6.53m-3.65 10.58a3.6 3.6 0 0 1-3.07 1.42 3.64 3.64 0 0 1-3.08-1.42 6.6 6.6 0 0 1-1.08-4.05 6.53 6.53 0 0 1 1.08-4 3.65 3.65 0 0 1 3.08-1.41 3.61 3.61 0 0 1 3.07 1.41 6.53 6.53 0 0 1 1.07 4 6.6 6.6 0 0 1-1.07 4.05m-33.931-12.129a11.25 11.25 0 0 0-5.12-1.13c-3 0-5 .77-6.26 2.31a6.7 6.7 0 0 0-1.29 3.77h4.42c.065-.586.29-1.143.65-1.61a2.93 2.93 0 0 1 2.32-.8 4.8 4.8 0 0 1 2.22.41 1.53 1.53 0 0 1 .76 1.49 1.375 1.375 0 0 1-1 1.3 7.3 7.3 0 0 1-1.83.4l-1.56.19c-1.393.117-2.751.5-4 1.13a5 5 0 0 0-2.51 4.67 4.83 4.83 0 0 0 1.56 3.84 6.22 6.22 0 0 0 4 1.36c10 .44 9.87-5.27 10-6.45v-6.57c-.16-2.11-.91-3.57-2.36-4.31m-2.32 10a3.69 3.69 0 0 1-1.31 3.17 4.8 4.8 0 0 1-2.76.86 2.5 2.5 0 0 1-1.61-.52 2 2 0 0 1-.65-1.69 2.07 2.07 0 0 1 1.07-1.94 6.8 6.8 0 0 1 2.11-.63l1-.19a8 8 0 0 0 1.23-.32q.466-.169.88-.44zm-20.489-7.26a3 3 0 0 1 2.52 1.06c.377.519.618 1.124.7 1.76h4.92q-.41-3.73-2.6-5.2a10.06 10.06 0 0 0-5.67-1.48 8.3 8.3 0 0 0-6.38 2.5 9.9 9.9 0 0 0-2.32 7 9.75 9.75 0 0 0 2.1 6.48q2.08 2.49 6.53 2.49a7.85 7.85 0 0 0 6.7-3 7.36 7.36 0 0 0 1.59-3.94h-4.91a4.13 4.13 0 0 1-.86 2.25 3 3 0 0 1-2.4.86 3.22 3.22 0 0 1-3.25-2.18 8.4 8.4 0 0 1-.47-3.08 9.2 9.2 0 0 1 .47-3.22 3.31 3.31 0 0 1 3.33-2.3m-10.189-3.821c-10.11 0-9.52 9-9.52 9v9.1h4.6v-8.57a7 7 0 0 1 .52-3.11c.63-1.19 1.86-1.79 3.7-1.79h.54l.77.07v-4.66h-.39zm-16.82 13.308c-.175.26-.388.492-.63.69a3.9 3.9 0 0 1-2.57.7 4.3 4.3 0 0 1-2.44-.59 4.13 4.13 0 0 1-1.86-3.64h12.7a23 23 0 0 0-.15-3.47 8.44 8.44 0 0 0-1.39-3.6 7 7 0 0 0-3-2.58 9.8 9.8 0 0 0-4.1-.82 8.43 8.43 0 0 0-6.24 2.42q-2.4 2.42-2.4 7c0 3.22.88 5.55 2.66 7a9.5 9.5 0 0 0 6.14 2.15 8.46 8.46 0 0 0 6.56-2.55 6.2 6.2 0 0 0 1.6-2.64zm-6.18-8.55a3.6 3.6 0 0 1 2.72-1 4 4 0 0 1 2.71.94 3.83 3.83 0 0 1 1.21 2.76h-7.86a4.7 4.7 0 0 1 1.22-2.7m-7.761 13.301h-4.19v-10.56a3 3 0 0 0-.153-1.24 3 3 0 0 0-2.897-2.02 3.1 3.1 0 0 0-2.3.935 3.08 3.08 0 0 0-.87 2.325v10.56h-4.2v-10.56a2.925 2.925 0 0 0-3-3.26 3.07 3.07 0 0 0-3.18 3.26v10.56h-4.2v-10.46c0-4.36 2.89-7.66 7.38-7.66a6.48 6.48 0 0 1 5.21 2.43 6.7 6.7 0 0 1 5.16-2.43c4.58 0 7.28 3.17 7.28 7.66zm84.361-23.568s-4.6-.5-4.6 3.22v4.92a5.5 5.5 0 0 0-2-1.93 5.67 5.67 0 0 0-2.82-.7 6.7 6.7 0 0 0-5.49 2.56 11.3 11.3 0 0 0-2 7.15 9.48 9.48 0 0 0 2.08 6.34c1.39 1.65 4.12 2.37 6.55 2.37 8.45 0 8.35-7.25 8.35-7.25zm-5.51 18.75a3.34 3.34 0 0 1-2.94 1.45 3.22 3.22 0 0 1-2.89-1.45 7.46 7.46 0 0 1-.95-4 7 7 0 0 1 .93-3.75 3.2 3.2 0 0 1 2.94-1.51 3.5 3.5 0 0 1 2.3.83c1.08.92 1.62 2.56 1.62 4.7a6.35 6.35 0 0 1-1.01 3.73m-47.091 26.76a3.5 3.5 0 0 1-.62.69 4 4 0 0 1-2.58.72 4.27 4.27 0 0 1-2.42-.58 4.14 4.14 0 0 1-1.81-3.65h12.59a22.5 22.5 0 0 0-.15-3.42 8.5 8.5 0 0 0-1.38-3.58 7 7 0 0 0-3-2.56 9.9 9.9 0 0 0-4.07-.81 8.33 8.33 0 0 0-6.18 2.4c-1.59 1.61-2.38 3.89-2.38 6.89 0 3.19.87 5.5 2.64 6.92a9.4 9.4 0 0 0 6.09 2.13 8.38 8.38 0 0 0 6.5-2.53 6.1 6.1 0 0 0 1.58-2.62zm-6.12-8.47a3.58 3.58 0 0 1 2.7-1 4 4 0 0 1 2.68.93 3.8 3.8 0 0 1 1.21 2.73h-7.79a4.73 4.73 0 0 1 1.18-2.66zm-25.45-4.709a5.57 5.57 0 0 0-2.82.7 5.5 5.5 0 0 0-2 1.92v-8.23s-4.62-.45-4.62 3.3v13.39s-.1 7.25 8.36 7.25c2.42 0 5.15-.73 6.54-2.37a9.5 9.5 0 0 0 2.11-6.35c.135-2.5-.592-4.971-2.06-7a6.67 6.67 0 0 0-5.51-2.61m1.9 13.11a3.22 3.22 0 0 1-2.89 1.45 3.38 3.38 0 0 1-3-1.44 6.37 6.37 0 0 1-1-3.73c0-2.13.54-3.66 1.62-4.57a3.45 3.45 0 0 1 2.3-.84 3.2 3.2 0 0 1 2.94 1.52 7 7 0 0 1 .94 3.75 7 7 0 0 1-.91 3.89zm16.791-13.112h-.22c-10.12 0-9.52 9-9.52 9v9h4.62v-8.4a7 7 0 0 1 .52-3.1c.63-1.2 1.86-1.8 3.7-1.8h.54c.23 0 .48 0 .77.07v-4.77zm-43.961-2.319v20.2h4.31v-23.5s-4.31-.17-4.31 3.3m12.44-3.329h-4.61v4.57h4.61zm.01 6.129h-4.62v17.44h4.62z"/></svg>